<svg width="147" height="147" viewBox="0 0 147 147" fill="none" xmlns="http://www.w3.org/2000/svg">
<path fill-rule="evenodd" clip-rule="evenodd" d="M0 0H147V147H0V0Z" fill="white"/>
<path fill-rule="evenodd" clip-rule="evenodd" d="M42.3743 29.9642L37.7887 27.8075L40.756 34.0107L37.2487 41.5629L42.1051 38.8655L48.0368 46.6854L46.9584 36.978L52.6224 34.0107L46.9584 31.5832L47.7676 23.2211L42.3743 29.9642ZM59.7377 104.337C37.6163 98.3538 21.5166 78.1817 21.5166 54.1691C21.5166 25.4479 44.8025 2.16127 73.5252 2.16127C102.249 2.16127 125.532 25.4479 125.532 54.1691C125.532 68.032 120.108 80.6275 111.267 89.9505C111.267 89.9505 107.646 85.2543 106.567 83.6383C105.487 82.0192 103.871 81.8179 104.14 79.5911C104.465 76.9013 106.567 74.1963 106.567 74.1963L107.106 76.353C107.106 76.353 122.249 60.4363 120.592 49.6536C119.511 42.6413 115.197 41.8321 115.197 41.8321C115.197 41.8321 116.275 35.359 106.296 30.5034C96.3161 25.6493 88.7646 26.4584 88.7646 26.4584L93.0811 29.695C93.0811 29.695 87.8884 28.7676 85.2581 29.425L83.1014 29.965L85.8987 31.3148C85.8987 31.3148 80.2027 31.5718 76.3583 34.5514C73.3566 36.8781 73.1217 38.3279 73.1217 38.3279H75.2799C75.2799 38.3279 73.3909 41.5644 72.8525 44.8002C72.3133 48.0368 72.549 48.9138 72.549 48.9138C72.549 48.9138 72.549 50.4307 69.818 52.4539C67.82 53.9342 65.8745 54.2751 65.2667 55.0834C64.3508 56.3052 67.1885 58.2864 67.1885 58.2864C67.1885 58.2864 66.9864 59.7362 65.6709 61.3545C65.07 62.0942 67.1885 63.3769 67.8962 63.6812L66.1773 65.0967C66.1773 65.0967 65.571 65.7037 66.5807 66.4107C67.5935 67.1191 67.1878 68.6368 66.7843 70.2543C66.3794 71.8733 65.571 74.4022 71.0314 75.0069C76.494 75.6147 76.7976 76.626 77.3024 77.3337C77.8088 78.0445 80.9424 86.9427 79.3249 88.3605C77.1011 90.3044 73.1919 89.7294 65.6701 94.8321C60.0069 98.6734 59.7377 104.337 59.7377 104.337Z" fill="#28539C"/>
<path fill-rule="evenodd" clip-rule="evenodd" d="M77.1011 46.7876C77.1011 46.7876 78.92 49.5193 79.6284 50.0242C80.3362 50.5298 80.5382 51.2375 80.0319 51.3397C79.5255 51.4396 75.9846 51.3397 75.9846 51.3397L76.189 50.7327C76.189 50.7327 75.8855 49.9243 76.189 49.1144C76.4925 48.3052 77.3017 48.0017 77.3017 48.0017L77.1011 46.7876ZM15.6429 124.294H23.4949C29.486 124.294 30.7253 129.963 30.7253 133.704C30.7253 137.942 29.2138 144.052 23.3446 144.052H15.6422L15.6429 124.294ZM19.2837 140.64H22.9C25.9208 140.64 26.9358 137.254 26.9358 134.007C26.9358 128.173 24.4337 127.706 22.8489 127.706H19.2829L19.2837 140.64ZM37.3738 144.052H33.4608L39.802 124.294H44.0857L50.3529 144.052H46.3156L45.1755 139.98H38.6131L37.3738 144.052ZM39.6037 136.567H44.136L41.9305 128.75H41.8825L39.6037 136.567ZM66.1491 124.294H69.6167V144.052H65.9005L58.6449 129.963H58.5946V144.052H55.1277V124.294H59.0407L66.0988 138.054H66.1491V124.294ZM84.3902 123.615C86.9847 123.615 93.8117 124.765 93.8117 134.226C93.8117 143.686 86.9855 144.839 84.3902 144.839C81.7973 144.839 74.9703 143.686 74.9703 134.226C74.9711 124.765 81.7973 123.615 84.3902 123.615ZM84.3902 141.273C86.6019 141.273 89.7149 139.869 89.7149 134.226C89.7149 128.584 86.6019 127.181 84.3902 127.181C82.1802 127.181 79.0656 128.584 79.0656 134.226C79.0656 139.869 82.1802 141.273 84.3902 141.273ZM110.377 124.294H113.845V144.052H110.13L102.874 129.963H102.826V144.052H99.3567V124.294H103.27L110.327 138.054H110.377V124.294ZM130.934 127.788H123.962V131.943H130.169V135.44H123.962V140.558H131.357V144.052H120.321V124.294H130.934V127.788Z" fill="#28539C"/>
</svg>
