<svg width="24" height="14" viewBox="0 0 24 14" fill="none" xmlns="http://www.w3.org/2000/svg">
<path d="M23.12 4.90999L19.25 0.999991C19.157 0.906263 19.0464 0.831868 18.9246 0.7811C18.8027 0.730331 18.672 0.704193 18.54 0.704193C18.408 0.704193 18.2773 0.730331 18.1554 0.7811C18.0336 0.831868 17.923 0.906263 17.83 0.999991C17.6437 1.18735 17.5392 1.44081 17.5392 1.70499C17.5392 1.96918 17.6437 2.22263 17.83 2.40999L21.39 5.99999H1C0.734784 5.99999 0.48043 6.10535 0.292893 6.29288C0.105357 6.48042 0 6.73478 0 6.99999H0C0 7.26521 0.105357 7.51956 0.292893 7.7071C0.48043 7.89463 0.734784 7.99999 1 7.99999H21.45L17.83 11.61C17.7363 11.703 17.6619 11.8136 17.6111 11.9354C17.5603 12.0573 17.5342 12.188 17.5342 12.32C17.5342 12.452 17.5603 12.5827 17.6111 12.7046C17.6619 12.8264 17.7363 12.937 17.83 13.03C17.923 13.1237 18.0336 13.1981 18.1554 13.2489C18.2773 13.2997 18.408 13.3258 18.54 13.3258C18.672 13.3258 18.8027 13.2997 18.9246 13.2489C19.0464 13.1981 19.157 13.1237 19.25 13.03L23.12 9.14999C23.6818 8.58749 23.9974 7.82499 23.9974 7.02999C23.9974 6.23499 23.6818 5.47249 23.12 4.90999Z" fill="#324BAA"/>
</svg>
