<svg width="16" height="16" viewBox="0 0 16 16" fill="none" xmlns="http://www.w3.org/2000/svg">
<path d="M2 3.99999C3.10456 3.99999 3.99999 3.10456 3.99999 2C3.99999 0.895429 3.10456 0 2 0C0.895429 0 0 0.895429 0 2C0 3.10456 0.895429 3.99999 2 3.99999Z" fill="#324BAA"/>
<path d="M8 3.99999C9.10456 3.99999 9.99999 3.10456 9.99999 2C9.99999 0.895429 9.10456 0 8 0C6.89543 0 6 0.895429 6 2C6 3.10456 6.89543 3.99999 8 3.99999Z" fill="#324BAA"/>
<path d="M14 3.99999C15.1046 3.99999 16 3.10456 16 2C16 0.895429 15.1046 0 14 0C12.8954 0 12 0.895429 12 2C12 3.10456 12.8954 3.99999 14 3.99999Z" fill="#324BAA"/>
<path d="M2 9.99999C3.10456 9.99999 3.99999 9.10456 3.99999 8C3.99999 6.89543 3.10456 6 2 6C0.895429 6 0 6.89543 0 8C0 9.10456 0.895429 9.99999 2 9.99999Z" fill="#324BAA"/>
<path d="M8 16C9.10456 16 9.99999 15.1046 9.99999 14C9.99999 12.8954 9.10456 12 8 12C6.89543 12 6 12.8954 6 14C6 15.1046 6.89543 16 8 16Z" fill="#324BAA"/>
<path d="M14 16C15.1046 16 16 15.1046 16 14C16 12.8954 15.1046 12 14 12C12.8954 12 12 12.8954 12 14C12 15.1046 12.8954 16 14 16Z" fill="#324BAA"/>
<path d="M2 16C3.10456 16 3.99999 15.1046 3.99999 14C3.99999 12.8954 3.10456 12 2 12C0.895429 12 0 12.8954 0 14C0 15.1046 0.895429 16 2 16Z" fill="#324BAA"/>
<path d="M14 9.99999C15.1046 9.99999 16 9.10456 16 8C16 6.89543 15.1046 6 14 6C12.8954 6 12 6.89543 12 8C12 9.10456 12.8954 9.99999 14 9.99999Z" fill="#324BAA"/>
<path d="M8 9.99999C9.10456 9.99999 9.99999 9.10456 9.99999 8C9.99999 6.89543 9.10456 6 8 6C6.89543 6 6 6.89543 6 8C6 9.10456 6.89543 9.99999 8 9.99999Z" fill="#324BAA"/>
</svg>
