<svg width="17" height="18" viewBox="0 0 17 18" fill="none" xmlns="http://www.w3.org/2000/svg">
<g clip-path="url(#clip0_35_8411)">
<path d="M8.5 8.74997C9.34057 8.74997 10.1623 8.50071 10.8612 8.03372C11.5601 7.56672 12.1048 6.90296 12.4265 6.12638C12.7482 5.34979 12.8323 4.49526 12.6683 3.67084C12.5044 2.84642 12.0996 2.08914 11.5052 1.49477C10.9108 0.900394 10.1536 0.495621 9.32913 0.331634C8.50471 0.167647 7.65018 0.251811 6.8736 0.573483C6.09701 0.895156 5.43325 1.43989 4.96625 2.1388C4.49926 2.83771 4.25 3.6594 4.25 4.49997C4.25113 5.6268 4.69925 6.70715 5.49604 7.50393C6.29282 8.30072 7.37318 8.74885 8.5 8.74997ZM8.5 1.66664C9.06038 1.66664 9.60818 1.83281 10.0741 2.14414C10.5401 2.45547 10.9032 2.89798 11.1177 3.4157C11.3321 3.93343 11.3882 4.50311 11.2789 5.05273C11.1696 5.60234 10.8997 6.10719 10.5035 6.50344C10.1072 6.89969 9.60237 7.16954 9.05276 7.27886C8.50314 7.38819 7.93345 7.33208 7.41573 7.11763C6.89801 6.90318 6.4555 6.54003 6.14417 6.07409C5.83284 5.60815 5.66667 5.06035 5.66667 4.49997C5.66667 3.74852 5.96518 3.02786 6.49653 2.4965C7.02788 1.96515 7.74855 1.66664 8.5 1.66664Z" fill="#E8F3FF"/>
<path d="M8.5 10.1671C6.80982 10.169 5.1894 10.8412 3.99426 12.0364C2.79913 13.2315 2.12687 14.8519 2.125 16.5421C2.125 16.73 2.19963 16.9101 2.33247 17.043C2.4653 17.1758 2.64547 17.2504 2.83333 17.2504C3.02119 17.2504 3.20136 17.1758 3.3342 17.043C3.46704 16.9101 3.54167 16.73 3.54167 16.5421C3.54167 15.2271 4.06406 13.9659 4.99393 13.036C5.9238 12.1062 7.18497 11.5838 8.5 11.5838C9.81503 11.5838 11.0762 12.1062 12.0061 13.036C12.9359 13.9659 13.4583 15.2271 13.4583 16.5421C13.4583 16.73 13.533 16.9101 13.6658 17.043C13.7986 17.1758 13.9788 17.2504 14.1667 17.2504C14.3545 17.2504 14.5347 17.1758 14.6675 17.043C14.8004 16.9101 14.875 16.73 14.875 16.5421C14.8731 14.8519 14.2009 13.2315 13.0057 12.0364C11.8106 10.8412 10.1902 10.169 8.5 10.1671Z" fill="#E8F3FF"/>
</g>
<defs>
<clipPath id="clip0_35_8411">
<rect width="17" height="17" fill="white" transform="translate(0 0.25)"/>
</clipPath>
</defs>
</svg>
